<svg version="1.1" id="Layer_1" xmlns="http://www.w3.org/2000/svg" xmlns:xlink="http://www.w3.org/1999/xlink" x="0px" y="0px"
	 width="100%" viewBox="0 0 512 512" enable-background="new 0 0 512 512" xml:space="preserve">
<path fill="#000000" opacity="1.000000" stroke="none" 
	d="
M269.000000,513.000000 
	C261.312408,513.000000 253.624832,513.000000 245.254196,512.809326 
	C239.298920,509.862366 233.355301,508.285736 228.882477,504.125397 
	C218.049927,494.049652 207.045853,484.137115 196.630280,473.643280 
	C191.551193,468.526062 186.138916,466.375122 179.208786,467.457886 
	C175.932861,467.969727 172.666931,468.588287 169.372910,468.934113 
	C156.354050,470.300995 143.536911,473.501770 130.357681,473.372772 
	C111.905907,473.192200 94.355026,459.526215 89.510941,441.707550 
	C85.853371,428.253418 83.907684,414.447723 81.843819,400.721771 
	C80.415016,391.219513 77.093773,384.450134 67.872810,380.281769 
	C57.140015,375.429993 46.836227,369.572906 36.585205,363.732666 
	C30.430130,360.225952 24.394018,356.572205 20.002705,350.482178 
	C7.729743,333.461548 8.089316,315.980164 16.950775,297.857605 
	C22.653006,286.195953 28.240374,274.477814 33.997608,262.843536 
	C35.999512,258.798065 36.083832,255.032852 34.035709,250.942612 
	C28.375309,239.638367 22.922874,228.230103 17.370909,216.871429 
	C14.596252,211.194809 12.414330,205.392563 11.246673,199.090195 
	C8.144989,182.348938 15.432342,163.945190 29.517441,154.675903 
	C42.464165,146.155777 56.641121,139.836472 70.166901,132.347885 
	C75.158279,129.584396 79.388832,126.433472 80.436493,120.359642 
	C82.802673,106.641701 85.233208,92.934860 87.624855,79.221291 
	C92.165955,53.182892 114.009827,37.818508 139.662643,40.905575 
	C153.961166,42.626266 168.211136,44.755547 182.473999,46.764595 
	C186.755432,47.367668 190.381577,46.059784 193.404587,43.180817 
	C203.282990,33.773159 213.077011,24.276966 222.923447,14.835657 
	C224.238815,13.574416 225.761368,12.522885 227.029846,11.220256 
	C231.800262,6.321370 238.714737,5.018239 244.000000,1.000000 
	C252.354233,1.000000 260.708466,1.000000 269.725586,1.269998 
	C275.075012,4.671506 280.865265,5.810486 285.089935,9.799911 
	C296.570618,20.641356 308.153534,31.375471 319.556915,42.297264 
	C322.753174,45.358559 326.372101,47.429348 330.647552,46.914230 
	C344.947388,45.191326 359.220001,43.215313 373.470245,41.114071 
	C399.040558,37.343655 421.933716,52.999653 426.376984,79.312302 
	C428.470490,91.710052 431.129547,104.030190 432.717316,116.489365 
	C433.829041,125.212898 438.798828,129.745590 446.017822,133.593689 
	C459.207581,140.624512 472.886200,146.819901 485.322296,155.195557 
	C500.587067,165.476288 507.565735,187.590027 501.137299,205.794022 
	C495.749664,221.050735 487.132690,234.822525 480.650787,249.592010 
	C478.384827,254.755219 477.955170,259.098572 480.600464,264.231506 
	C486.697449,276.062073 492.519440,288.044189 498.107849,300.124481 
	C504.869934,314.741852 505.739441,329.392944 498.032562,344.184326 
	C492.908447,354.018707 484.597015,359.961365 475.233521,364.964172 
	C463.652283,371.151947 452.143402,377.476227 440.523193,383.589325 
	C436.428955,385.743195 434.425873,389.205688 433.644928,393.425751 
	C431.444733,405.315125 429.280060,417.215027 427.383148,429.155548 
	C425.245209,442.613495 420.909149,454.759338 409.688782,463.580688 
	C399.124023,471.886566 387.149048,474.685486 374.101074,473.058167 
	C361.129242,471.440308 348.240082,469.156860 335.266113,467.560059 
	C330.044556,466.917389 324.603485,466.657043 320.239136,470.929993 
	C313.827271,477.207611 307.071014,483.144897 300.839020,489.592133 
	C291.527283,499.225464 281.828125,508.205994 269.000000,513.000000 
M422.058105,156.553192 
	C411.572357,148.877747 404.737305,138.982758 402.565033,125.913254 
	C400.230438,111.867004 397.634003,97.857994 394.812073,83.901436 
	C393.193237,75.895134 388.007050,71.693359 379.850769,72.489380 
	C366.169678,73.824600 352.541260,75.788559 338.937866,77.805923 
	C325.487427,79.800598 313.018250,77.756470 302.198456,69.238266 
	C289.630310,59.343605 279.337189,46.982910 267.335175,36.434429 
	C260.418182,30.355122 253.595016,29.792017 247.094757,36.069862 
	C237.161469,45.663246 227.456116,55.500595 217.323792,64.877556 
	C208.165375,73.353233 197.511169,78.809486 184.578125,78.409073 
	C169.626236,77.946167 155.007812,74.795677 140.257523,72.746857 
	C129.194839,71.210243 120.083916,73.499596 118.184532,87.628090 
	C116.442223,100.588196 113.596115,113.397194 111.365570,126.295120 
	C108.979012,140.095154 101.755035,150.664383 89.740913,157.585281 
	C77.071831,164.883484 64.079338,171.624817 51.167458,178.495422 
	C42.590214,183.059525 40.045048,190.614120 44.337341,199.415436 
	C50.392998,211.832520 56.605911,224.176437 62.444374,236.694931 
	C68.423988,249.516083 68.836784,262.763977 63.097225,275.684448 
	C57.291164,288.754639 50.733257,301.492249 44.445400,314.346527 
	C40.023083,323.387054 42.451344,330.843384 51.432110,335.572906 
	C62.905731,341.615173 74.426102,347.572571 85.814209,353.772461 
	C99.856316,361.417267 109.055840,372.545776 111.539307,388.904999 
	C113.626129,402.651428 116.321571,416.315521 119.112885,429.941223 
	C120.764183,438.002014 125.869125,441.987946 134.031219,441.559692 
	C147.778687,440.838409 161.290588,438.029999 174.914825,436.209167 
	C188.725311,434.363373 201.488022,436.432281 212.522278,445.294250 
	C224.859818,455.202942 235.065491,467.407196 246.970993,477.817596 
	C253.792679,483.782684 260.083344,483.974609 266.807404,477.917664 
	C277.080414,468.663879 286.634613,458.676605 296.657623,449.177277 
	C305.873596,440.442871 316.722198,435.079254 329.876129,435.600220 
	C344.658356,436.185730 359.131927,439.176392 373.713135,441.265991 
	C385.191010,442.910767 393.982941,439.835175 395.789490,426.297455 
	C397.519409,413.333771 400.401398,400.527039 402.620636,387.624451 
	C404.963562,374.002747 411.997711,363.456238 423.827667,356.582977 
	C436.477997,349.233154 449.499207,342.513885 462.443817,335.680939 
	C471.476227,330.913116 474.099426,323.269745 469.570496,314.033447 
	C463.492310,301.637604 457.214478,289.333923 451.413177,276.809662 
	C445.465637,263.969727 445.267700,250.752472 451.107544,237.844696 
	C456.731018,225.415115 462.881866,213.221359 468.925964,200.985703 
	C474.287506,190.131851 472.032471,183.246933 461.384796,177.656464 
	C448.432892,170.856155 435.588226,163.851562 422.058105,156.553192 
z"/>
<path fill="#000000" opacity="1.000000" stroke="none" 
	d="
M210.862579,280.867340 
	C254.623444,237.141327 298.124176,193.673401 341.621094,150.201630 
	C349.673645,142.153702 358.706696,141.469299 365.659485,148.402222 
	C372.503632,155.226837 371.808563,164.356064 363.710052,172.459991 
	C299.388458,236.824692 235.047287,301.169830 170.726212,365.535065 
	C166.464172,369.800079 161.533844,371.003448 155.689621,369.650208 
	C149.936417,368.318085 146.359482,364.910034 144.633911,359.371399 
	C142.739899,353.292053 143.813797,347.916870 148.382385,343.348541 
	C169.123535,322.608643 189.861816,301.865875 210.862579,280.867340 
z"/>
<path fill="#000000" opacity="1.000000" stroke="none" 
	d="
M352.217743,377.188721 
	C335.919739,391.489502 317.237457,394.052399 297.827423,387.660706 
	C278.032837,381.142426 265.368683,366.458710 261.965210,345.937317 
	C255.814713,308.852753 283.242462,278.424042 320.176514,280.786865 
	C345.795135,282.425812 365.232635,300.473907 370.069946,324.431122 
	C373.953888,343.666595 368.411774,360.849365 354.974152,375.306458 
	C354.315796,376.014740 353.336456,376.424683 352.217743,377.188721 
M322.227875,313.208588 
	C314.063019,311.060181 306.762329,312.611389 300.517273,318.401520 
	C292.777161,325.577789 290.398254,335.488983 294.257843,344.159210 
	C298.359192,353.372620 308.464264,360.259735 316.781982,359.510620 
	C328.104675,358.490845 337.771423,349.713165 339.520416,338.863403 
	C341.210724,328.377808 334.369507,317.822815 322.227875,313.208588 
z"/>
<path fill="#000000" opacity="1.000000" stroke="none" 
	d="
M242.830658,146.216553 
	C256.656799,166.902832 256.936218,188.298279 244.066483,208.316406 
	C222.778000,241.429382 177.425125,240.670197 155.050323,212.847183 
	C139.723190,193.787933 139.231415,166.012070 152.171310,147.440979 
	C162.622299,132.441895 176.962341,124.155746 195.731857,123.492027 
	C215.485565,122.793495 230.778839,130.526215 242.830658,146.216553 
M204.579651,155.913589 
	C202.315674,155.438126 200.048080,154.539627 197.788345,154.559006 
	C186.904617,154.652359 176.896423,163.366180 174.607620,174.464447 
	C172.699005,183.719162 178.790588,194.996262 188.101608,199.445358 
	C199.887207,205.076904 214.067123,199.683105 219.424911,187.530548 
	C225.107117,174.642151 219.122421,161.371948 204.579651,155.913589 
z"/>
</svg>