<svg xmlns="http://www.w3.org/2000/svg" width="32" height="32" id="location"><path style="line-height:normal;text-indent:0;text-align:start;text-decoration-line:none;text-decoration-style:solid;text-decoration-color:#000;text-transform:none;block-progression:tb;isolation:auto;mix-blend-mode:normal" d="M16.043.45c-4.547 0-8.25 3.702-8.25 8.25 0 2.267.933 4.318 2.414 5.806.02.034.028.062.086.117l-.03-.03 3.436 3.86 1.969 2.264a.5.5 0 0 0 .375.17h.031a.5.5 0 0 0 .373-.166l2-2.27c.003-.003 0-.001.002-.004v.004l3.844-4.36a.502.502 0 0 0 .117-.241c1.142-1.413 1.883-3.19 1.883-5.15 0-4.479-3.602-8.101-8.055-8.212a.504.504 0 0 0-.195-.039zm0 .991v.008a7.248 7.248 0 0 1 7.25 7.25 7.233 7.233 0 0 1-1.783 4.737.498.498 0 0 0-.08.123l-3.856 4.37c-.004.006-.005.013-.01.018l-1.502 1.701-1.488-1.73.01.025c-.004-.004-.006-.01-.01-.015l-3.562-4-.006-.012c-.018-.033-.026-.057-.078-.11a7.21 7.21 0 0 1-2.135-5.115 7.248 7.248 0 0 1 7.25-7.25zm0 3.727a3.541 3.541 0 0 0-3.531 3.531 3.541 3.541 0 0 0 3.531 3.531 3.541 3.541 0 0 0 3.531-3.53 3.541 3.541 0 0 0-3.531-3.532zm0 1c1.4 0 2.531 1.131 2.531 2.531 0 1.4-1.131 2.531-2.531 2.531a2.529 2.529 0 0 1-2.531-2.53c0-1.4 1.13-2.532 2.531-2.532zM3.893 9.531v.002a1.87 1.87 0 0 0-1.866 1.858l-.017 6.511c0 .214.055.335.06.362l-.004-.034c.039.285.157.506.264.688l.006.01.006.011c-.005-.01-.004-.01.006.01h.002l6.048 9.797.112 2.803 1-.04-.121-3.066-6.184-10.011h-.002a1.017 1.017 0 0 1-.146-.332l-.002-.018-.004-.016c-.03-.15-.041-.189-.041-.162l.017-6.513c0-.472.39-.858.866-.858h.296a.833.833 0 0 1 .84.84l-.004 6.004c-.055.107-.028.253-.076.38-.028.072.55-1.003-.127.17 0 0-.025.092-.031.132-.015.075-.06.05-.066.13-.03.431.12.983.453 1.512.008.013 0 .024.008.037l.005.01 2.096 3.393.852-.526-2.102-3.402c-.298-.483-.317-.766-.283-.975.009-.056.048-.124.068-.181a.953.953 0 0 1 .408-.467c.353-.218.566-.218.791-.129.226.089.486.326.717.701l1.051 1.701c.322.521.854.853 1.35 1.188.495.335.96.676 1.093.865l1.561 2.527c.63 1.034.65 1.764.65 2.815l.067 4.277 1-.015-.067-4.266c0-1.075-.052-2.117-.798-3.338l-1.586-2.566-.008-.012c-.338-.478-.863-.787-1.352-1.117-.488-.33-.932-.68-1.058-.885L8.59 17.635c-.303-.491-.69-.904-1.201-1.106-.415-.163-.9-.025-1.364.168l.004-5.326c0-.25-.048-.494-.142-.719a1.842 1.842 0 0 0-1.7-1.12Zm23.92.002c-.758 0-1.42.457-1.7 1.121a1.85 1.85 0 0 0-.142.719l.004 5.326c-.464-.192-.95-.331-1.364-.168-.511.202-.898.615-1.2 1.106l-1.052 1.7c-.126.206-.57.555-1.058.886-.489.33-1.014.639-1.352 1.117l-.008.012-1.586 2.566c-.746 1.22-.798 2.263-.798 3.338l-.067 4.265 1 .016.067-4.277c0-1.052.019-1.781.65-2.815h.002l1.559-2.525c.133-.189.598-.53 1.093-.865.496-.335 1.028-.667 1.35-1.188l1.05-1.701c.232-.375.492-.612.718-.701.225-.09.438-.09.79.129.243.15.336.304.409.467.02.058.059.125.068.181.034.209.015.491-.283.975l-2.102 3.402.852.526 2.096-3.393.006-.01c.008-.013 0-.024.007-.037.333-.53.483-1.018.453-1.45-.005-.08-.051-.118-.066-.193-.006-.04.031.18.031-.002-.165-.285-.106-.227-.134-.298-.048-.129-.076-.275-.131-.381l-.004-6.006a.832.832 0 0 1 .84-.838h.296c.475 0 .866.386.866.857l.017 6.514c0-.027-.01.013-.04.162l-.005.016-.002.017a1.014 1.014 0 0 1-.134.315c-.005.01-.013.02-.014.021L22.61 28.451l-.12 3.067 1 .039.11-2.803 6.05-9.797h.001l.006-.01.006-.012.006-.01c.107-.182.226-.402.264-.687l-.004.033c.005-.026.06-.147.06-.361l-.017-6.512a1.87 1.87 0 0 0-1.865-1.857h-.295z" color="#000" font-family="sans-serif" font-weight="400" overflow="visible"></path></svg>