<svg xmlns="http://www.w3.org/2000/svg" enable-background="new 0 0 130 130" viewBox="0 0 130 130" id="restaurant"><path d="M65,1C29.7099609,1,1,29.7099609,1,65s28.7099609,64,64,64s64-28.7099609,64-64S100.2900391,1,65,1z M65,127
		C30.8134766,127,3,99.1865234,3,65S30.8134766,3,65,3s62,27.8134766,62,62S99.1865234,127,65,127z"></path><path d="M65,9C34.1210938,9,9,34.1210938,9,65s25.1210938,56,56,56s56-25.1210938,56-56S95.8789063,9,65,9z M65,119
		c-29.7753906,0-54-24.2246094-54-54s24.2246094-54,54-54s54,24.2246094,54,54S94.7753906,119,65,119z"></path><path d="M96.4765625,45.1425781L85.8730469,55.7548828l-1.4150391-1.4150391l12.3154297-12.3154297v-4.2441406h-4.2441406
		L80.2138672,50.0957031l-2.1259766-2.1259766l10.6123047-10.6025391c1.9443359-1.9443359,1.9453125-5.1171875,0.0019531-7.0722656
		l-0.7070313-0.7109375L70.6660156,46.9130859c-3.1425781,3.1425781-4.1777344,7.7548828-2.7275391,11.9179688l-6.2514648,6.2514648
		L59.78125,63.1767578l-1.4140625-1.4140625L30.7900391,34.1855469l-0.7070313,0.7070313
		c-2.71875,2.7177734-5.21875,6.2705078-3.1523438,12.0058594c1.8076172,5.0175781,6.9238281,11.5634766,16.5878906,21.2275391
		l5.65625,5.6572266l3.5356445-3.5356445l1.9057617,1.9057617L35.3066406,91.4628906
		c-1.9443359,1.9443359-1.9453125,5.1171875,0.0019531,7.0761719c0.9775391,0.9716797,2.2578125,1.4570313,3.5380859,1.4570313
		c1.28125,0,2.5615234-0.4863281,3.5341797-1.4589844l19.309082-19.3100586l19.3051758,19.3051758
		c0.9746094,0.9746094,2.2548828,1.4619141,3.5351563,1.4619141s2.5605469-0.4873047,3.5351563-1.4619141
		c1.9492188-1.9492188,1.9492188-5.1220703,0-7.0712891L68.7612305,72.1567383l6.253418-6.253418
		c1.2236328,0.4228516,2.4951172,0.6367188,3.7890625,0.6367188c3.0722656,0,5.9580078-1.1943359,8.1269531-3.3632813
		l17.3300781-17.3291016l-0.7119141-0.7080078C101.5927734,43.1982422,98.4189453,43.1972656,96.4765625,45.1425781z
		 M44.9326172,66.7119141C35.6142578,57.3945313,30.4921875,50.8828125,28.8125,46.2207031
		c-1.4511719-4.0263672-0.3164063-6.6630859,1.9931641-9.1914063L56.953125,63.1767578l-7.7783203,7.7783203L44.9326172,66.7119141z
		 M40.9667969,97.1230469c-1.1679688,1.1660156-3.0722656,1.1660156-4.2441406,0.0019531
		c-1.1679688-1.1757813-1.1689453-3.0810547-0.0019531-4.2480469l19.3095703-19.3095703l4.2456055,4.2456055L40.9667969,97.1230469z
		 M86.6513672,97.1181641c-1.1328125,1.1328125-3.109375,1.1328125-4.2421875,0L62.4139404,77.1229248
		c-0.0057983-0.0061035-0.0075684-0.0144043-0.0135498-0.0203857s-0.0142822-0.0077515-0.0203857-0.0135498l-5.6281738-5.6281738
		c-0.0050049-0.005249-0.0064697-0.0123291-0.0115967-0.0174561s-0.012207-0.0065918-0.0174561-0.0115967L54.125,68.8339844
		l4.2421875-4.2431641l2.5958252,2.5958252c0.0057983,0.0061035,0.0075684,0.0144043,0.0135498,0.0203857
		s0.0142822,0.0077515,0.0203857,0.0135498l5.6262207,5.6262207c0.0057983,0.0061035,0.0075684,0.0144043,0.0135498,0.0203857
		s0.0142822,0.0077515,0.0203857,0.0135498L86.6513672,92.875C87.8212891,94.0449219,87.8212891,95.9482422,86.6513672,97.1181641z
		 M85.5166016,61.7626953c-1.7910156,1.7910156-4.1748047,2.7773438-6.7128906,2.7773438
		c-1.2568359,0-2.4882813-0.2441406-3.6601563-0.7246094L74.5273438,63.5625l-7.1801758,7.1801758l-4.2460938-4.2460938
		l7.1821289-7.1821289l-0.2558594-0.6171875c-1.4814453-3.5712891-0.6748047-7.6416016,2.0527344-10.3701172l15.7900391-15.7890625
		c0.5292969,1.1171875,0.3349609,2.4951172-0.5839844,3.4150391L75.2597656,47.9697266l4.9541016,4.9541016l13.1435547-13.1435547
		h1.4160156v1.4160156L81.6298828,54.3398438l4.2431641,4.2451172L97.890625,46.5566406
		c0.9189453-0.9199219,2.2958984-1.1152344,3.4150391-0.5830078L85.5166016,61.7626953z"></path></svg>