<svg version="1.1" id="Layer_1" xmlns="http://www.w3.org/2000/svg" xmlns:xlink="http://www.w3.org/1999/xlink" x="0px" y="0px"
	 width="100%" viewBox="0 0 512 512" enable-background="new 0 0 512 512" xml:space="preserve">
<path fill="#FCB342" opacity="1.000000" stroke="none" 
	d="
M1.000001,289.000000 
	C1.000000,267.645782 1.000000,246.291550 1.329503,224.809570 
	C2.093483,224.013580 2.791821,223.392807 2.921909,222.669800 
	C4.331967,214.832901 5.312282,206.903290 7.058998,199.145126 
	C13.444846,170.781967 24.446777,144.267761 40.073917,119.753181 
	C53.751972,98.296181 70.484627,79.500450 89.634186,62.691765 
	C104.046974,50.040825 119.665794,39.189465 136.505142,30.307600 
	C163.648361,15.990984 192.409256,6.259925 223.116409,2.917180 
	C223.805679,2.842149 224.374832,1.663731 225.000000,1.000003 
	C246.020889,1.000000 267.041779,1.000000 288.190491,1.334862 
	C293.666656,2.771517 298.993286,3.995221 304.367096,4.954606 
	C331.880005,9.866477 357.705231,19.358362 382.097900,32.978756 
	C408.571564,47.761169 431.476196,66.777145 451.273224,89.706444 
	C467.422089,108.410362 480.763367,128.822769 490.859955,151.405975 
	C501.114624,174.342758 508.249481,198.106033 511.082581,223.119141 
	C511.160767,223.809631 512.336243,224.375839 513.000000,225.000000 
	C513.000000,232.020950 513.000000,239.041901 512.716492,246.358551 
	C510.979218,245.284683 509.489014,243.951538 508.076996,242.540146 
	C473.188049,207.666611 438.320251,172.771851 403.382599,137.947144 
	C401.830566,136.400116 399.656006,135.477600 397.781158,134.240936 
	C397.790894,134.217712 397.841125,134.212967 397.821594,133.888870 
	C397.396881,133.095291 396.991699,132.625809 396.690857,132.131592 
	C396.795166,132.106873 396.834961,132.317566 396.726471,132.059052 
	C396.353851,131.542587 396.089722,131.284668 395.560181,130.835327 
	C385.898865,117.364624 372.928864,111.282928 356.806946,111.291405 
	C290.326233,111.326363 223.845367,111.251717 157.364990,111.406647 
	C151.950058,111.419266 146.311981,112.143410 141.165833,113.767265 
	C122.410492,119.685493 111.353416,136.161316 111.342453,157.512238 
	C111.309013,222.660004 111.553566,287.809082 111.182281,352.954773 
	C111.080818,370.757660 116.460243,385.211243 131.193665,396.048889 
	C131.682709,396.456055 132.004745,396.639252 132.222000,396.803284 
	C132.117233,396.784149 132.165909,396.576782 132.319672,396.863953 
	C133.053528,397.380859 133.633636,397.610596 134.216034,397.815369 
	C134.218353,397.790466 134.264374,397.770935 134.253510,398.123047 
	C135.511444,400.172546 136.594467,402.055267 138.076233,403.540100 
	C172.913132,438.448486 207.796097,473.310852 242.654984,508.197235 
	C244.179062,509.722504 245.555038,511.395721 247.000000,513.000000 
	C239.979050,513.000000 232.958099,513.000000 225.809479,512.665649 
	C225.010147,511.900360 224.389420,511.228271 223.659286,511.074036 
	C210.830780,508.363617 197.885086,506.132965 185.172577,502.964630 
	C162.194733,497.237915 141.061157,487.154510 121.040604,474.589020 
	C98.902473,460.694489 79.583832,443.649139 62.363407,424.001953 
	C49.833866,409.706665 39.088757,394.197815 30.306442,377.490173 
	C16.032814,350.335785 6.183056,321.613586 2.916956,290.884094 
	C2.843814,290.195923 1.663733,289.625397 1.000001,289.000000 
z"/>
<path fill="#FC9135" opacity="1.000000" stroke="none" 
	d="
M397.771423,134.264175 
	C399.656006,135.477600 401.830566,136.400116 403.382599,137.947144 
	C438.320251,172.771851 473.188049,207.666611 508.076996,242.540146 
	C509.489014,243.951538 510.979218,245.284683 512.716492,246.827133 
	C513.000000,260.687561 513.000000,274.375122 512.632446,288.240417 
	C511.846283,289.432617 511.218170,290.412354 511.042969,291.467255 
	C509.869568,298.533691 509.238922,305.721039 507.603943,312.674438 
	C501.792999,337.387238 493.191956,361.032532 480.494263,383.162079 
	C471.206818,399.348267 460.829926,414.798309 447.979736,428.227081 
	C436.822144,439.886932 424.770752,450.821228 412.255310,461.022247 
	C392.352051,477.244781 369.803955,489.185852 345.687897,497.909729 
	C327.977203,504.316467 309.849426,509.361206 290.959167,511.088898 
	C290.253754,511.153381 289.650757,512.337585 289.000000,513.000000 
	C275.312439,513.000000 261.624878,513.000000 247.468658,513.000000 
	C245.555038,511.395721 244.179062,509.722504 242.654984,508.197235 
	C207.796097,473.310852 172.913132,438.448486 138.076233,403.540100 
	C136.594467,402.055267 135.511444,400.172546 134.612274,398.187561 
	C142.399826,399.495056 149.810486,402.434692 157.236862,402.474976 
	C223.709503,402.835510 290.185028,402.740173 356.659241,402.583191 
	C362.072113,402.570404 367.706757,401.821991 372.852264,400.194641 
	C391.579803,394.271606 402.630280,377.812134 402.644440,356.434357 
	C402.687164,291.959015 402.607422,227.483536 402.717163,163.008362 
	C402.734039,153.077881 402.041077,143.396484 397.771423,134.264175 
z"/>
<path fill="#000000" opacity="1.000000" stroke="none" 
	d="
M513.000000,224.531342 
	C512.336243,224.375839 511.160767,223.809631 511.082581,223.119141 
	C508.249481,198.106033 501.114624,174.342758 490.859955,151.405975 
	C480.763367,128.822769 467.422089,108.410362 451.273224,89.706444 
	C431.476196,66.777145 408.571564,47.761169 382.097900,32.978756 
	C357.705231,19.358362 331.880005,9.866477 304.367096,4.954606 
	C298.993286,3.995221 293.666656,2.771517 288.659119,1.334862 
	C363.593719,1.000000 438.187408,1.000000 513.000000,1.000000 
	C513.000000,75.354088 513.000000,149.708389 513.000000,224.531342 
z"/>
<path fill="#000000" opacity="1.000000" stroke="none" 
	d="
M1.000001,289.468658 
	C1.663733,289.625397 2.843814,290.195923 2.916956,290.884094 
	C6.183056,321.613586 16.032814,350.335785 30.306442,377.490173 
	C39.088757,394.197815 49.833866,409.706665 62.363407,424.001953 
	C79.583832,443.649139 98.902473,460.694489 121.040604,474.589020 
	C141.061157,487.154510 162.194733,497.237915 185.172577,502.964630 
	C197.885086,506.132965 210.830780,508.363617 223.659286,511.074036 
	C224.389420,511.228271 225.010147,511.900360 225.340912,512.665649 
	C150.406296,513.000000 75.812599,513.000000 1.000000,513.000000 
	C1.000000,438.645905 1.000000,364.291626 1.000001,289.468658 
z"/>
<path fill="#000000" opacity="1.000000" stroke="none" 
	d="
M289.468689,513.000000 
	C289.650757,512.337585 290.253754,511.153381 290.959167,511.088898 
	C309.849426,509.361206 327.977203,504.316467 345.687897,497.909729 
	C369.803955,489.185852 392.352051,477.244781 412.255310,461.022247 
	C424.770752,450.821228 436.822144,439.886932 447.979736,428.227081 
	C460.829926,414.798309 471.206818,399.348267 480.494263,383.162079 
	C493.191956,361.032532 501.792999,337.387238 507.603943,312.674438 
	C509.238922,305.721039 509.869568,298.533691 511.042969,291.467255 
	C511.218170,290.412354 511.846283,289.432617 512.632446,288.709045 
	C513.000000,363.593719 513.000000,438.187408 513.000000,513.000000 
	C438.645905,513.000000 364.291626,513.000000 289.468689,513.000000 
z"/>
<path fill="#000000" opacity="1.000000" stroke="none" 
	d="
M224.531342,1.000003 
	C224.374832,1.663731 223.805679,2.842149 223.116409,2.917180 
	C192.409256,6.259925 163.648361,15.990984 136.505142,30.307600 
	C119.665794,39.189465 104.046974,50.040825 89.634186,62.691765 
	C70.484627,79.500450 53.751972,98.296181 40.073917,119.753181 
	C24.446777,144.267761 13.444846,170.781967 7.058998,199.145126 
	C5.312282,206.903290 4.331967,214.832901 2.921909,222.669800 
	C2.791821,223.392807 2.093483,224.013580 1.329503,224.340912 
	C1.000000,149.739456 1.000000,75.478920 1.000000,1.000000 
	C75.354088,1.000000 149.708389,1.000000 224.531342,1.000003 
z"/>
<path fill="#683BB6" opacity="1.000000" stroke="none" 
	d="
M397.781158,134.240936 
	C402.041077,143.396484 402.734039,153.077881 402.717163,163.008362 
	C402.607422,227.483536 402.687164,291.959015 402.644440,356.434357 
	C402.630280,377.812134 391.579803,394.271606 372.852264,400.194641 
	C367.706757,401.821991 362.072113,402.570404 356.659241,402.583191 
	C290.185028,402.740173 223.709503,402.835510 157.236862,402.474976 
	C149.810486,402.434692 142.399826,399.495056 134.623138,397.835449 
	C134.264374,397.770935 134.218353,397.790466 134.052063,397.546814 
	C133.312469,397.061005 132.739197,396.818909 132.165909,396.576782 
	C132.165909,396.576782 132.117233,396.784149 132.105072,396.531860 
	C131.737488,396.128021 131.382065,395.976471 131.026642,395.824921 
	C116.460243,385.211243 111.080818,370.757660 111.182281,352.954773 
	C111.553566,287.809082 111.309013,222.660004 111.342453,157.512238 
	C111.353416,136.161316 122.410492,119.685493 141.165833,113.767265 
	C146.311981,112.143410 151.950058,111.419266 157.364990,111.406647 
	C223.845367,111.251717 290.326233,111.326363 356.806946,111.291405 
	C372.928864,111.282928 385.898865,117.364624 395.634033,131.119812 
	C396.260468,131.836365 396.547729,132.076965 396.834961,132.317566 
	C396.834961,132.317566 396.795166,132.106873 396.748627,132.443359 
	C397.081757,133.257553 397.461456,133.735260 397.841125,134.212967 
	C397.841125,134.212967 397.790894,134.217712 397.781158,134.240936 
M164.013092,280.500000 
	C164.013153,243.842224 164.094772,207.184052 163.915817,170.527145 
	C163.891953,165.635605 165.055923,163.886093 170.283401,163.901947 
	C228.102264,164.077362 285.922089,164.078461 343.740936,163.900696 
	C349.002502,163.884521 350.147736,165.690094 350.085175,170.552338 
	C349.842865,189.378021 349.986115,208.208664 349.987061,227.037460 
	C349.987854,242.533722 349.945496,258.030182 350.012878,273.526154 
	C350.042480,280.331451 354.377106,284.524139 360.516296,283.952637 
	C366.096375,283.433197 368.983307,279.418457 368.988068,271.888336 
	C369.011993,234.064133 369.004242,196.239914 368.996979,158.415695 
	C368.994934,147.909409 366.104218,145.004852 355.636780,145.003845 
	C289.985931,144.997574 224.335083,144.998474 158.684235,145.002762 
	C147.770203,145.003479 145.003708,147.730347 145.002808,158.506256 
	C144.997299,224.157104 144.997452,289.807953 145.002686,355.458801 
	C145.003540,366.199249 147.845123,368.997009 158.737381,368.997681 
	C224.221603,369.001862 289.705811,368.999969 355.190033,368.998322 
	C356.522888,368.998291 357.861511,369.053192 359.187622,368.952759 
	C365.417938,368.481049 368.804596,365.374817 368.905548,359.116211 
	C369.120453,345.789673 369.108124,332.455505 368.922180,319.128174 
	C368.830841,312.582214 364.835052,308.796844 359.040039,309.022034 
	C353.564026,309.234772 350.064453,313.182709 350.009521,319.443176 
	C349.936371,327.773895 349.772675,336.113403 350.071960,344.433868 
	C350.234070,348.941895 348.513794,350.069977 344.252716,350.061859 
	C286.100281,349.951233 227.947449,349.936798 169.795151,350.081360 
	C165.037659,350.093201 163.893768,348.419098 163.932556,343.984253 
	C164.114624,323.157532 164.013275,302.328308 164.013092,280.500000 
M187.850937,250.368851 
	C184.920532,253.727570 184.214813,257.466248 186.310028,261.451385 
	C188.393509,265.414185 191.988281,266.836517 196.298889,266.831848 
	C206.295746,266.821045 216.292633,266.831238 226.289505,266.832214 
	C233.073074,266.832886 239.856628,266.832367 247.173264,266.832367 
	C247.173264,269.148651 247.172943,270.932770 247.173294,272.716858 
	C247.176270,287.878754 247.099457,303.041321 247.221954,318.202271 
	C247.270752,324.238861 251.083466,328.433624 256.345276,328.847992 
	C261.016663,329.215912 265.406311,325.874756 266.453491,320.972778 
	C266.796844,319.365356 266.808624,317.667084 266.811554,316.010071 
	C266.837311,301.514679 266.826660,287.019165 266.826782,272.523712 
	C266.826782,270.758118 266.826782,268.992523 266.826782,266.832397 
	C269.305206,266.832397 271.106750,266.832397 272.908295,266.832397 
	C286.903931,266.832367 300.899536,266.832733 314.895172,266.831665 
	C316.061432,266.831573 317.230591,266.873749 318.393463,266.808289 
	C324.593475,266.459412 328.890625,262.406067 328.869080,256.960876 
	C328.847534,251.516174 324.537567,247.284317 318.322693,247.225784 
	C302.995483,247.081451 287.666107,247.171555 272.337585,247.167542 
	C270.589752,247.167084 268.841888,247.167480 266.825256,247.167480 
	C266.825256,229.881058 266.863464,213.400055 266.807709,196.919373 
	C266.783142,189.663834 262.702423,184.976501 256.778870,185.128220 
	C251.033142,185.275360 247.223175,189.835068 247.191391,196.854324 
	C247.133316,209.683380 247.173843,222.512894 247.173340,235.342209 
	C247.173187,239.124207 247.173309,242.906204 247.173309,247.167557 
	C244.816315,247.167557 243.021988,247.167542 241.227646,247.167572 
	C226.732178,247.167770 212.233795,247.014511 197.743546,247.289734 
	C194.615707,247.349121 191.517181,248.951981 187.850937,250.368851 
z"/>
<path fill="#FC9135" opacity="1.000000" stroke="none" 
	d="
M397.821594,133.888870 
	C397.461456,133.735260 397.081757,133.257553 396.644287,132.468079 
	C396.991699,132.625809 397.396881,133.095291 397.821594,133.888870 
z"/>
<path fill="#FC9135" opacity="1.000000" stroke="none" 
	d="
M132.319672,396.863953 
	C132.739197,396.818909 133.312469,397.061005 134.049744,397.571716 
	C133.633636,397.610596 133.053528,397.380859 132.319672,396.863953 
z"/>
<path fill="#FC9135" opacity="1.000000" stroke="none" 
	d="
M396.726471,132.059052 
	C396.547729,132.076965 396.260468,131.836365 395.899414,131.311249 
	C396.089722,131.284668 396.353851,131.542587 396.726471,132.059052 
z"/>
<path fill="#FC9135" opacity="1.000000" stroke="none" 
	d="
M131.193665,396.048889 
	C131.382065,395.976471 131.737488,396.128021 132.209839,396.551025 
	C132.004745,396.639252 131.682709,396.456055 131.193665,396.048889 
z"/>
<path fill="#592AA1" opacity="1.000000" stroke="none" 
	d="
M164.013123,281.000000 
	C164.013275,302.328308 164.114624,323.157532 163.932556,343.984253 
	C163.893768,348.419098 165.037659,350.093201 169.795151,350.081360 
	C227.947449,349.936798 286.100281,349.951233 344.252716,350.061859 
	C348.513794,350.069977 350.234070,348.941895 350.071960,344.433868 
	C349.772675,336.113403 349.936371,327.773895 350.009521,319.443176 
	C350.064453,313.182709 353.564026,309.234772 359.040039,309.022034 
	C364.835052,308.796844 368.830841,312.582214 368.922180,319.128174 
	C369.108124,332.455505 369.120453,345.789673 368.905548,359.116211 
	C368.804596,365.374817 365.417938,368.481049 359.187622,368.952759 
	C357.861511,369.053192 356.522888,368.998291 355.190033,368.998322 
	C289.705811,368.999969 224.221603,369.001862 158.737381,368.997681 
	C147.845123,368.997009 145.003540,366.199249 145.002686,355.458801 
	C144.997452,289.807953 144.997299,224.157104 145.002808,158.506256 
	C145.003708,147.730347 147.770203,145.003479 158.684235,145.002762 
	C224.335083,144.998474 289.985931,144.997574 355.636780,145.003845 
	C366.104218,145.004852 368.994934,147.909409 368.996979,158.415695 
	C369.004242,196.239914 369.011993,234.064133 368.988068,271.888336 
	C368.983307,279.418457 366.096375,283.433197 360.516296,283.952637 
	C354.377106,284.524139 350.042480,280.331451 350.012878,273.526154 
	C349.945496,258.030182 349.987854,242.533722 349.987061,227.037460 
	C349.986115,208.208664 349.842865,189.378021 350.085175,170.552338 
	C350.147736,165.690094 349.002502,163.884521 343.740936,163.900696 
	C285.922089,164.078461 228.102264,164.077362 170.283401,163.901947 
	C165.055923,163.886093 163.891953,165.635605 163.915817,170.527145 
	C164.094772,207.184052 164.013153,243.842224 164.013123,281.000000 
z"/>
<path fill="#FBFAFD" opacity="1.000000" stroke="none" 
	d="
M188.128052,250.106384 
	C191.517181,248.951981 194.615707,247.349121 197.743546,247.289734 
	C212.233795,247.014511 226.732178,247.167770 241.227646,247.167572 
	C243.021988,247.167542 244.816315,247.167557 247.173309,247.167557 
	C247.173309,242.906204 247.173187,239.124207 247.173340,235.342209 
	C247.173843,222.512894 247.133316,209.683380 247.191391,196.854324 
	C247.223175,189.835068 251.033142,185.275360 256.778870,185.128220 
	C262.702423,184.976501 266.783142,189.663834 266.807709,196.919373 
	C266.863464,213.400055 266.825256,229.881058 266.825256,247.167480 
	C268.841888,247.167480 270.589752,247.167084 272.337585,247.167542 
	C287.666107,247.171555 302.995483,247.081451 318.322693,247.225784 
	C324.537567,247.284317 328.847534,251.516174 328.869080,256.960876 
	C328.890625,262.406067 324.593475,266.459412 318.393463,266.808289 
	C317.230591,266.873749 316.061432,266.831573 314.895172,266.831665 
	C300.899536,266.832733 286.903931,266.832367 272.908295,266.832397 
	C271.106750,266.832397 269.305206,266.832397 266.826782,266.832397 
	C266.826782,268.992523 266.826782,270.758118 266.826782,272.523712 
	C266.826660,287.019165 266.837311,301.514679 266.811554,316.010071 
	C266.808624,317.667084 266.796844,319.365356 266.453491,320.972778 
	C265.406311,325.874756 261.016663,329.215912 256.345276,328.847992 
	C251.083466,328.433624 247.270752,324.238861 247.221954,318.202271 
	C247.099457,303.041321 247.176270,287.878754 247.173294,272.716858 
	C247.172943,270.932770 247.173264,269.148651 247.173264,266.832367 
	C239.856628,266.832367 233.073074,266.832886 226.289505,266.832214 
	C216.292633,266.831238 206.295746,266.821045 196.298889,266.831848 
	C191.988281,266.836517 188.393509,265.414185 186.310028,261.451385 
	C184.214813,257.466248 184.920532,253.727570 188.128052,250.106384 
z"/>
</svg>